<svg width="36" height="42" viewBox="0 0 36 42" fill="none" xmlns="http://www.w3.org/2000/svg">
<path fill-rule="evenodd" clip-rule="evenodd" d="M17.0721 8.34846C20.2541 8.16545 22.209 9.62498 22.9366 12.7272C22.9905 13.1326 22.9905 13.5381 22.9366 13.9436C22.7881 14.5773 22.6263 15.199 22.4512 15.8086L26.0507 21.0791C28.5187 21.1079 30.2039 22.2703 31.1062 24.566C31.6981 26.9495 31.0105 28.855 29.0436 30.2826C27.1833 31.2503 25.3632 31.1826 23.5836 30.0799C22.0275 31.1912 20.4772 32.3132 18.9325 33.4452C18.6267 33.7066 18.2762 33.8823 17.881 33.9723C17.4534 33.7849 17.0491 33.555 16.6679 33.2829L12.4617 30.2015C12.3809 30.1474 12.3 30.1475 12.2191 30.2015C9.72164 31.5119 7.52406 31.1201 5.62669 29.0258C4.72449 27.7199 4.45485 26.2874 4.81775 24.7283C5.52463 22.56 7.00755 21.3434 9.26658 21.0791C10.6124 19.0678 11.9741 17.0679 13.3516 15.0788C12.5476 12.5639 13.2215 10.5499 15.3736 9.03752C15.9302 8.75764 16.4964 8.52806 17.0721 8.34846ZM15.131 17.6736C14.239 19.096 13.2951 20.488 12.2998 21.8496C14.3025 23.4127 14.963 25.4263 14.2815 27.8906C15.497 28.7983 16.7239 29.6903 17.962 30.5665C19.2271 29.6632 20.4808 28.7441 21.7232 27.8094C21.0667 25.6442 21.5656 23.7928 23.2198 22.255L20.2269 17.9572C19.8102 18.1053 19.3786 18.2405 18.9325 18.3627C18.1436 18.5397 17.3618 18.513 16.587 18.2818C16.0874 18.0985 15.602 17.8957 15.131 17.6736ZM11.774 26.5121C11.8541 24.6329 10.9509 23.7408 9.06435 23.8362C8.49361 24.042 8.02169 24.3933 7.64872 24.8903C7.00495 26.6132 7.5577 27.7351 9.30691 28.2556C10.5892 28.3228 11.4116 27.7416 11.774 26.5121ZM28.5988 25.6201C28.1654 24.2602 27.2351 23.6655 25.8082 23.8362C25.2554 24.0403 24.8105 24.3916 24.4735 24.8903C23.8348 26.5653 24.3605 27.6872 26.0507 28.2556C27.8056 28.2533 28.655 27.3747 28.5988 25.6201ZM20.1863 12.8895C19.7112 11.6437 18.808 11.0759 17.4766 11.1864C16.2328 11.598 15.6533 12.463 15.7377 13.7812C16.1256 15.2127 17.0556 15.821 18.5281 15.6059C19.7844 15.1306 20.3371 14.2251 20.1863 12.8895Z" fill="#BAC3FF"/>
<path fill-rule="evenodd" clip-rule="evenodd" d="M17.1531 0.19899C17.7215 -0.0663299 18.2879 -0.0663299 18.8519 0.19899C24.204 3.43584 29.5695 6.6524 34.9484 9.84846C35.2722 10.0228 35.5418 10.2527 35.7573 10.5378C35.8458 10.6885 35.9132 10.8508 35.9595 11.0244C36.0135 17.6466 36.0135 24.2687 35.9595 30.8908C35.8214 31.2891 35.592 31.6271 35.2719 31.9045C33.804 32.769 32.348 33.6474 30.904 34.5397C26.7426 36.9946 22.5905 39.4679 18.4474 41.9594C18.1239 42.0135 17.8001 42.0135 17.4766 41.9594C11.8821 38.6553 6.3009 35.3307 0.733064 31.9857C0.410273 31.7433 0.180987 31.4324 0.0454144 31.0531C0.0049706 24.458 -0.00842346 17.8628 0.00508473 11.2676C0.0894487 10.7093 0.385929 10.2904 0.894675 10.0108C6.32757 6.7606 11.747 3.48994 17.1531 0.19899ZM18.5284 3.52358C18.2432 3.41517 17.9465 3.37468 17.6385 3.402C12.8241 6.37669 7.98434 9.32285 3.11923 12.2405C3.04952 12.3692 2.99543 12.5044 2.95733 12.646C2.90338 18.2681 2.90338 23.8904 2.95733 29.5124C2.98533 29.7028 3.07981 29.8514 3.24052 29.9583C8.08017 32.83 12.9066 35.7223 17.7194 38.6348C17.9697 38.6877 18.2124 38.6605 18.4474 38.5537C23.2669 35.6312 28.0796 32.6984 32.8857 29.7556C33.0197 24.003 33.0467 18.2458 32.9667 12.484L32.8048 12.1597L18.5284 3.52358Z" fill="#BAC3FF"/>
</svg>
