<svg width="64" height="64" viewBox="0 0 64 64" fill="none" xmlns="http://www.w3.org/2000/svg">
<rect width="64" height="64" rx="12" fill="#04092C"/>
<path fill-rule="evenodd" clip-rule="evenodd" d="M31.1752 20.7542C34.0036 20.5915 35.7413 21.8889 36.3881 24.6464C36.436 25.0068 36.436 25.3673 36.3881 25.7276C36.2561 26.291 36.1122 26.8436 35.9566 27.3854L39.1562 32.0703C41.3499 32.0959 42.8479 33.1292 43.65 35.1698C44.1761 37.2884 43.5649 38.9823 41.8165 40.2513C40.1629 41.1114 38.5451 41.0513 36.9632 40.0711C35.58 41.0589 34.2019 42.0562 32.8289 43.0625C32.5571 43.2948 32.2455 43.4509 31.8943 43.5309C31.5142 43.3644 31.1548 43.1601 30.816 42.9182L27.0771 40.1791C27.0052 40.1311 26.9333 40.1311 26.8614 40.1791C24.6415 41.3439 22.6881 40.9956 21.0015 39.1341C20.1995 37.9733 19.9599 36.6999 20.2824 35.3141C20.9108 33.3867 22.2289 32.3053 24.237 32.0703C25.4332 30.2825 26.6437 28.5048 27.8681 26.7368C27.1534 24.5013 27.7524 22.7111 29.6654 21.3667C30.1602 21.1179 30.6635 20.9139 31.1752 20.7542ZM29.4498 29.0433C28.6569 30.3076 27.8179 31.545 26.9331 32.7552C28.7133 34.1447 29.3004 35.9345 28.6947 38.125C29.7751 38.9318 30.8656 39.7247 31.9662 40.5036C33.0907 39.7007 34.2051 38.8837 35.3095 38.0528C34.726 36.1283 35.1695 34.4826 36.6398 33.1156L33.9795 29.2953C33.609 29.427 33.2255 29.5471 32.8289 29.6558C32.1277 29.8131 31.4327 29.7893 30.744 29.5839C30.2999 29.4209 29.8685 29.2407 29.4498 29.0433ZM26.4658 36.8997C26.537 35.2292 25.7341 34.4363 24.0572 34.5211C23.5499 34.704 23.1304 35.0163 22.7989 35.4581C22.2266 36.9896 22.718 37.9868 24.2728 38.4495C25.4126 38.5092 26.1437 37.9925 26.4658 36.8997ZM41.4212 36.1068C41.0359 34.898 40.209 34.3694 38.9406 34.5211C38.4492 34.7025 38.0537 35.0148 37.7542 35.4581C37.1865 36.947 37.6538 37.9442 39.1562 38.4495C40.7161 38.4474 41.4711 37.6665 41.4212 36.1068ZM33.9433 24.7907C33.5211 23.6833 32.7182 23.1786 31.5347 23.2769C30.4291 23.6427 29.914 24.4116 29.9891 25.5834C30.3338 26.8558 31.1605 27.3965 32.4694 27.2052C33.5861 26.7828 34.0774 25.9779 33.9433 24.7907Z" fill="#BAC3FF"/>
<path fill-rule="evenodd" clip-rule="evenodd" d="M31.2472 13.5103C31.7524 13.2744 32.2559 13.2744 32.7572 13.5103C37.5147 16.3875 42.284 19.2466 47.0652 22.0876C47.353 22.2425 47.5927 22.4469 47.7843 22.7003C47.8629 22.8343 47.9228 22.9786 47.964 23.1329C48.012 29.0192 48.012 34.9055 47.964 40.7919C47.8412 41.1459 47.6374 41.4464 47.3528 41.6929C46.048 42.4614 44.7538 43.2422 43.4702 44.0354C39.7712 46.2175 36.0804 48.416 32.3977 50.6306C32.1101 50.6787 31.8223 50.6787 31.5347 50.6306C26.5618 47.6936 21.6008 44.7384 16.6516 41.7651C16.3647 41.5496 16.1609 41.2733 16.0404 40.9362C16.0044 35.0738 15.9925 29.2114 16.0045 23.349C16.0795 22.8528 16.343 22.4804 16.7953 22.2318C21.6245 19.3428 26.4418 16.4355 31.2472 13.5103ZM32.4697 16.4654C32.2162 16.3691 31.9524 16.3331 31.6787 16.3574C27.3992 19.0015 23.0972 21.6204 18.7727 24.2138C18.7107 24.3282 18.6626 24.4484 18.6287 24.5743C18.5808 29.5717 18.5808 34.5692 18.6287 39.5666C18.6536 39.7358 18.7376 39.8679 18.8805 39.963C23.1824 42.5156 27.4725 45.0866 31.7506 47.6755C31.973 47.7224 32.1888 47.6983 32.3977 47.6033C36.6817 45.0056 40.9597 42.3986 45.2318 39.7828C45.3509 34.6694 45.3749 29.5519 45.3037 24.4303L45.1598 24.142L32.4697 16.4654Z" fill="#BAC3FF"/>
</svg>
